<!DOCTYPE svg PUBLIC "-//W3C//DTD SVG 1.1//EN" "http://www.w3.org/Graphics/SVG/1.1/DTD/svg11.dtd">
<!-- Uploaded to: SVG Repo, www.svgrepo.com, Transformed by: SVG Repo Mixer Tools -->
<svg version="1.1" id="_x32_" xmlns="http://www.w3.org/2000/svg" xmlns:xlink="http://www.w3.org/1999/xlink" viewBox="-87.04 -87.04 686.08 686.08" xml:space="preserve" width="256px" height="256px" fill="#000000" stroke="#000000" stroke-width="0.00512">
<g id="SVGRepo_bgCarrier" stroke-width="0">
<path transform="translate(-87.04, -87.04), scale(21.44)" d="M16,27.704075136532385C18.84519961361215,27.835893002589344,21.81718213772637,27.363737495699652,23.996941281104753,25.530383501521534C26.17513554447306,23.698345698182937,26.797249427349414,20.78554322748731,27.503816944198526,18.028433308393407C28.283057323147027,14.987745296385345,29.760180129155145,11.679189419111358,28.252101426394198,8.926245943332717C26.73538873834859,6.1575414376981,23.2311627177394,5.282978964971998,20.148614449137412,4.601775478971788C17.4449612445018,4.004302924626777,14.735098797425797,4.42914079661306,12.128498581098405,5.3631372721813335C9.507535547333276,6.3022802296619655,6.95915121393061,7.572809104100267,5.406849587251211,9.884041757633284C3.7715022720373046,12.318921712552353,2.8910271566259764,15.335084659499913,3.5046331418585304,18.2032703109407C4.105010355294632,21.009620559263,6.3170734214204005,23.08011562403172,8.601560571243086,24.8171167688117C10.774368289277644,26.469202880964158,13.273367647961408,27.57775048203432,16,27.704075136532385" fill="#bedbe4" strokewidth="0"/>
</g>
<g id="SVGRepo_tracerCarrier" stroke-linecap="round" stroke-linejoin="round" stroke="#CCCCCC" stroke-width="1.024"/>
<g id="SVGRepo_iconCarrier"> <style type="text/css"> .st0{fill:#1d2031;} </style> <g> <path class="st0" d="M256,0C114.84,0,0,114.844,0,256c0,141.164,114.84,256,256,256s256-114.836,256-256 C512,114.844,397.16,0,256,0z M256,451.051c-107.547,0-195.047-87.496-195.047-195.051c0-107.547,87.5-195.047,195.047-195.047 S451.047,148.453,451.047,256C451.047,363.555,363.547,451.051,256,451.051z"/> <path class="st0" d="M247.721,113.117c9.494-0.973,6.934-0.992,16.303-0.059l3.012-30.328c-11.398-1.129-10.707-1.129-22.602,0.086 L245.726,98L247.721,113.117z"/> <path class="st0" d="M263.75,398.891c-9.494,0.976-6.934,0.988-16.305,0.058l-3.012,30.328c11.4,1.129,10.709,1.129,22.602-0.09 L265.744,414L263.75,398.891z"/> <path class="st0" d="M429.186,244.703L414,245.996l-15.113,1.996c0.972,9.492,0.99,6.934,0.058,16.301l30.328,3.012 C430.402,255.906,430.402,256.598,429.186,244.703z"/> <path class="st0" d="M113.055,247.715l-30.328-3.012c-1.129,11.398-1.129,10.711,0.088,22.602L98,266.016l15.113-1.996 C112.141,254.527,112.123,257.086,113.055,247.715z"/> <rect x="171.601" y="192.438" transform="matrix(0.7072 -0.707 0.707 0.7072 -112.2305 206.5906)" class="st0" width="43.386" height="92.697"/> <rect x="207.486" y="220.05" transform="matrix(0.7071 -0.7071 0.7071 0.7071 -79.4373 291.7113)" class="st0" width="209.838" height="43.388"/> </g> </g>
</svg>