<svg xmlns="http://www.w3.org/2000/svg" xmlns:xlink="http://www.w3.org/1999/xlink" viewBox="0,0,256,256" width="100px" height="100px" fill-rule="nonzero"><g transform="translate(-29.44,-29.44) scale(1.23,1.23)"><g fill="none" fill-rule="nonzero" stroke="none" stroke-width="none" stroke-linecap="none" stroke-linejoin="miter" stroke-miterlimit="10" stroke-dasharray="" stroke-dashoffset="0" font-family="none" font-weight="none" font-size="none" text-anchor="none" style="mix-blend-mode: normal"><g transform="scale(2.56,2.56)"><path d="M50,10.5c-21.8,0 -39.5,17.7 -39.5,39.5c0,21.8 17.7,39.5 39.5,39.5v0c21.8,0 39.5,-17.7 39.5,-39.5c0,-21.8 -17.7,-39.5 -39.5,-39.5z" fill="#8f9eb6" stroke="none" stroke-width="1" stroke-linecap="butt"></path><circle cx="50" cy="50" r="34.5" fill="#fefdef" stroke="none" stroke-width="1" stroke-linecap="butt"></circle><circle cx="50" cy="50" r="39.5" fill="none" stroke="#1f212b" stroke-width="2" stroke-linecap="butt"></circle><path d="M83.4,41.5c0.2,0.8 0.4,1.7 0.5,2.5" fill="none" stroke="#1f212b" stroke-width="1" stroke-linecap="round"></path><path d="M84.4,47c0.1,1 0.1,2 0.1,3c0,19.1 -15.4,34.5 -34.5,34.5c-19.1,0 -34.5,-15.4 -34.5,-34.5c0,-19.1 15.4,-34.5 34.5,-34.5c13.6,0 25.4,7.9 31,19.4" fill="none" stroke="#1f212b" stroke-width="1" stroke-linecap="round"></path><path d="M50,15.5v4" fill="none" stroke="#1f212b" stroke-width="1" stroke-linecap="round"></path><path d="M25.6,25.6l2.8,2.8" fill="none" stroke="#1f212b" stroke-width="1" stroke-linecap="round"></path><path d="M15.5,50h4" fill="none" stroke="#1f212b" stroke-width="1" stroke-linecap="round"></path><path d="M25.6,74.4l2.8,-2.8" fill="none" stroke="#1f212b" stroke-width="1" stroke-linecap="round"></path><path d="M50,84.5v-4" fill="none" stroke="#1f212b" stroke-width="1" stroke-linecap="round"></path><path d="M74.4,74.4l-2.8,-2.8" fill="none" stroke="#1f212b" stroke-width="1" stroke-linecap="round"></path><path d="M84.5,50h-4" fill="none" stroke="#1f212b" stroke-width="1" stroke-linecap="round"></path><path d="M74.4,25.6l-2.8,2.8" fill="none" stroke="#1f212b" stroke-width="1" stroke-linecap="round"></path><path d="M69,50c0,0.5 -0.5,1 -1,1h-18v-2h18c0.5,0 1,0.5 1,1z" fill="#1f212b" stroke="none" stroke-width="1" stroke-linecap="butt"></path><path d="M51,24v26h-2v-26c0,-0.5 0.5,-1 1,-1c0.5,0 1,0.5 1,1z" fill="#1f212b" stroke="none" stroke-width="1" stroke-linecap="butt"></path><path d="M55.6,43l-22,22c-0.4,0.4 -0.4,1 0,1.4c0.4,0.4 1,0.4 1.4,0l22,-22c1.1,0.6 2.5,0.3 3.4,-0.6l1.4,-1.4c1.2,-1.2 1.2,-3.1 0,-4.2c-1.2,-1.1 -3.1,-1.2 -4.2,0l-1.4,1.4c-0.9,0.9 -1.1,2.3 -0.6,3.4z" fill="#f37e98" stroke="none" stroke-width="1" stroke-linecap="butt"></path><path d="M55.6,43l-22,22c-0.4,0.4 -0.4,1 0,1.4c0.4,0.4 1,0.4 1.4,0l22,-22c1.1,0.6 2.5,0.3 3.4,-0.6l1.4,-1.4c1.2,-1.2 1.2,-3.1 0,-4.2c-1.2,-1.1 -3.1,-1.2 -4.2,0l-1.4,1.4c-0.9,0.9 -1.1,2.3 -0.6,3.4z" fill="none" stroke="#1f212b" stroke-width="1" stroke-linecap="round"></path><circle cx="50" cy="50" r="3.5" fill="#fef6aa" stroke="none" stroke-width="1" stroke-linecap="butt"></circle><circle cx="50" cy="50" r="3.5" fill="none" stroke="#1f212b" stroke-width="1" stroke-linecap="round"></circle></g></g></g></svg>